<svg width="905" height="915" viewBox="0 0 905 915" fill="none" xmlns="http://www.w3.org/2000/svg">
<path fill-rule="evenodd" clip-rule="evenodd" d="M275.047 175H628.953C696.838 175.182 751.818 230.163 752 298.042V651.953C751.818 719.835 696.838 774.817 628.958 774.998L275.047 775C207.165 774.817 152.183 719.835 152.002 651.957L152 298.047C152.183 230.163 207.168 175.182 275.047 175Z" fill="#000008"/>
<path d="M328.587 643.85C323.091 643.85 318.726 642.233 315.492 639C312.259 635.443 310.642 630.593 310.642 624.45V426.57C310.642 399.733 316.301 376.453 327.617 356.73C339.257 336.683 355.747 321.325 377.087 310.655C398.427 299.985 423.486 294.65 452.262 294.65C481.039 294.65 505.936 299.985 526.952 310.655C548.292 321.325 564.621 336.683 575.937 356.73C587.577 376.453 593.397 399.733 593.397 426.57V624.45C593.397 630.593 591.781 635.443 588.547 639C585.637 642.233 581.272 643.85 575.452 643.85C569.956 643.85 565.429 642.233 561.872 639C558.639 635.443 557.022 630.593 557.022 624.45V425.115C557.022 393.752 547.807 369.34 529.377 351.88C510.947 334.42 485.242 325.69 452.262 325.69C419.929 325.69 394.224 334.582 375.147 352.365C356.394 370.148 347.017 394.398 347.017 425.115V624.45C347.017 630.593 345.401 635.443 342.167 639C338.934 642.233 334.407 643.85 328.587 643.85Z" fill="url(#paint0_linear_16_2)" fill-opacity="0.81"/>
<defs>
<linearGradient id="paint0_linear_16_2" x1="326.5" y1="355.5" x2="588.496" y2="354.503" gradientUnits="userSpaceOnUse">
<stop stop-color="#FE019A"/>
<stop offset="0.976" stop-color="#47FD07"/>
</linearGradient>
</defs>
</svg>
