<svg width="905" height="915" viewBox="0 0 905 915" fill="none" xmlns="http://www.w3.org/2000/svg">
<path fill-rule="evenodd" clip-rule="evenodd" d="M198.367 55H705.633C802.934 55.2604 881.74 134.066 882 231.36V738.633C881.74 835.93 802.934 914.738 705.64 914.997L198.367 915C101.07 914.738 22.262 835.93 22.0034 738.638L22 231.367C22.262 134.066 101.075 55.2604 198.367 55Z" fill="#000008"/>
<path d="M309.483 672.6C303.136 672.6 298.096 670.733 294.363 667C290.63 662.893 288.763 657.293 288.763 650.2V421.72C288.763 390.733 295.296 363.853 308.363 341.08C321.803 317.933 340.843 300.2 365.483 287.88C390.123 275.56 419.056 269.4 452.283 269.4C485.51 269.4 514.256 275.56 538.523 287.88C563.163 300.2 582.016 317.933 595.083 341.08C608.523 363.853 615.243 390.733 615.243 421.72V650.2C615.243 657.293 613.376 662.893 609.643 667C606.283 670.733 601.243 672.6 594.523 672.6C588.176 672.6 582.95 670.733 578.843 667C575.11 662.893 573.243 657.293 573.243 650.2V420.04C573.243 383.827 562.603 355.64 541.323 335.48C520.043 315.32 490.363 305.24 452.283 305.24C414.95 305.24 385.27 315.507 363.243 336.04C341.59 356.573 330.763 384.573 330.763 420.04V650.2C330.763 657.293 328.896 662.893 325.163 667C321.43 670.733 316.203 672.6 309.483 672.6Z" fill="url(#paint0_linear_16_2)" fill-opacity="0.81"/>
<defs>
<linearGradient id="paint0_linear_16_2" x1="326.5" y1="355.5" x2="588.496" y2="354.503" gradientUnits="userSpaceOnUse">
<stop stop-color="#FE019A"/>
<stop offset="0.976" stop-color="#47FD07"/>
</linearGradient>
</defs>
</svg>
