<svg width="1284" height="2778" viewBox="0 0 1284 2778" fill="none" xmlns="http://www.w3.org/2000/svg">
<rect width="1284" height="2778" fill="#F5F5F5"/>
<path fill-rule="evenodd" clip-rule="evenodd" d="M526.723 1208.58H756.162C800.172 1208.7 835.816 1243.93 835.934 1287.42V1514.16C835.816 1557.66 800.172 1592.88 756.165 1593L526.723 1593C482.714 1592.88 447.069 1557.66 446.952 1514.17L446.951 1287.42C447.069 1243.93 482.717 1208.7 526.723 1208.58Z" fill="#000008"/>
<path d="M575.272 1488.6C572.325 1488.6 569.985 1487.73 568.252 1486C566.519 1484.09 565.652 1481.49 565.652 1478.2V1372.12C565.652 1357.73 568.685 1345.25 574.752 1334.68C580.992 1323.93 589.832 1315.7 601.272 1309.98C612.712 1304.26 626.145 1301.4 641.572 1301.4C656.999 1301.4 670.345 1304.26 681.612 1309.98C693.052 1315.7 701.805 1323.93 707.872 1334.68C714.112 1345.25 717.232 1357.73 717.232 1372.12V1478.2C717.232 1481.49 716.365 1484.09 714.632 1486C713.072 1487.73 710.732 1488.6 707.612 1488.6C704.665 1488.6 702.239 1487.73 700.332 1486C698.599 1484.09 697.732 1481.49 697.732 1478.2V1371.34C697.732 1354.53 692.792 1341.44 682.912 1332.08C673.032 1322.72 659.252 1318.04 641.572 1318.04C624.239 1318.04 610.459 1322.81 600.232 1332.34C590.179 1341.87 585.152 1354.87 585.152 1371.34V1478.2C585.152 1481.49 584.285 1484.09 582.552 1486C580.819 1487.73 578.392 1488.6 575.272 1488.6Z" fill="url(#paint0_linear_17_9)" fill-opacity="0.81"/>
<defs>
<linearGradient id="paint0_linear_17_9" x1="584.678" y1="1342.91" x2="703.18" y2="1342.45" gradientUnits="userSpaceOnUse">
<stop stop-color="#FE019A"/>
<stop offset="0.976" stop-color="#47FD07"/>
</linearGradient>
</defs>
</svg>
